<svg id="Layer_1" data-name="Layer 1" xmlns="http://www.w3.org/2000/svg" viewBox="0 0 2225.37 2225.37"><defs><style>.cls-1,.cls-2{fill:#1d1d1b;}.cls-2{stroke:#fff;stroke-linecap:round;stroke-miterlimit:10;stroke-width:4.5px;}</style></defs><path class="cls-1" d="M1612.22,2098.23l1.58-.79h0c9.48-4,20.55-2.37,30,4.74,8.7,5.54,16.6,15,22.13,26.88h0a16.92,16.92,0,0,1,2.37,4c5.53,13.43,7.11,26.87,5.53,37.94-1.58,13.43-7.9,23.7-18.17,28.45l-.79.79h0c-10.28,3.95-20.55,1.58-30.83-4.75-8.69-5.53-16.59-15-22.13-26.87h0a17.32,17.32,0,0,0-2.36-3.94h0a75.9,75.9,0,0,1-5.54-38.73c1.58-12.65,7.9-22.92,18.18-27.67Zm8.7,17.39h0c-4,2.38-6.33,7.11-7.12,13.44-.79,7.9.79,18.17,4.74,27.66h0c.79,1.58.79,2.37,1.59,3.16h0a47,47,0,0,0,15,19q7.11,4.74,11.85,2.37h0c4-1.58,6.33-6.32,7.11-12.65a51.4,51.4,0,0,0-4.73-27.66c0-1.58-.8-2.37-.8-3.16h0c-4.74-8.69-10.27-15-15.8-19-4-3.16-8.7-4-11.85-3.16Z" transform="translate(-177.63 -174.32)"/><path class="cls-1" d="M2010.54,2120.36v-.79q-4.74-1.18-11.86,2.37c-5.53,4-11.06,10.28-15.8,19,0,.79-.79,1.58-1.59,3.16h0c-4,9.48-5.53,19.76-4.74,27.67.79,6.32,3.16,11.06,6.33,13.43h.79c3.16,1.58,7.11,0,11.85-2.37,5.53-4,11.06-10.28,15.8-19,0-1.58.8-2.37.8-3.16,4.74-9.49,6.32-19.76,5.53-27.66-.79-6.32-3.16-11.07-7.11-12.65Zm7.9-19a2.46,2.46,0,0,0,1.58.78c10.27,4.75,15.81,15.82,17.39,28.46,1.58,11.85-.79,25.29-6.33,37.93a17.42,17.42,0,0,1-2.36,3.95c-5.54,11.86-14.23,21.34-22.92,26.88-9.49,6.32-20.56,7.9-30,3.95a2.76,2.76,0,0,1-1.57-.79c-10.28-4.75-15.81-15.81-17.39-28.46-1.59-11.85.79-25.29,6.32-37.93h0a17,17,0,0,1,2.37-4c5.53-11.86,14.22-21.34,22.92-26.87,9.48-6.33,20.55-7.91,30-3.95Z" transform="translate(-177.63 -174.32)"/><polygon class="cls-1" points="1631.37 1946.05 1801.46 2029.03 1805.24 2011.65 1640.06 1927.87 1631.37 1946.05"/><path class="cls-1" d="M1626.45,1964.67c4.73-11.07,13.43-20.55,25.29-26.88l35.3,18a157.19,157.19,0,0,1-1.4-23L1656.48,1918l-4.74-2.38-4,1.59c-19,8.69-32.41,22.92-39.52,39.51-8.69,18.18-9.49,39.52-3.16,56.91l.79,3.95,3.95,1.58,98,49.79,8.7-18.18-94-47.42C1619.33,1990.75,1620.92,1977.31,1626.45,1964.67Z" transform="translate(-177.63 -174.32)"/><polygon class="cls-1" points="1750.71 1881.23 1742.02 1899.42 1832.9 1946.05 1842.39 1927.87 1750.71 1881.23"/><path class="cls-1" d="M2024,1963.09c-7.11-17.39-19-32.41-34.77-41.89l-4.75-2.37-4.74,2.37L1944.86,1938a111.88,111.88,0,0,1-2.63,23.62l41.44-19.86a71.47,71.47,0,0,1,22.13,28.45c5.52,12.65,7.11,26.08,4.74,37.94L1647.79,2182.8l8.69,17.39L2024,2023.94l4-2.37,1.58-4C2033.46,2001,2031.87,1980.47,2024,1963.09Z" transform="translate(-177.63 -174.32)"/><path class="cls-1" d="M1741.27,2036.07l-129,62.16,8.7,17.39,149.28-71.55A106.41,106.41,0,0,1,1741.27,2036.07Z" transform="translate(-177.63 -174.32)"/><path class="cls-1" d="M1695.2,2008.92c-22.92-35.56-24.5-73.5-13.43-111.44,7.9-27.65,10.27-41.88,7.9-60.85,58.48,30.82,37.15,68.76,57.69,75.09,4,.78,7.9-3.17,9.49-11.86.79-11.06-7.91-26.87-17.39-44.26-11.86-21.34-24.5-44.26-22.92-68,2.37-37.15,19.76-55.32,43.47-66.39-1.59,19-1.59,47.42,16.59,59.28a11,11,0,0,0,8.7,1.58c22.92-5.53,14.22-56.11,10.27-72.71a289.75,289.75,0,0,0-11.85-34s72.71,36.36,82.19,98.79a339.62,339.62,0,0,1,2.37,56.91c0,7.9,0,15,.79,21.34,1.58,16.59,15.81,19,22.13,4,2.37-7.9,4.74-15,5.53-22.92s0-15.8-.79-25.29c26.87,19.75,41.88,42.67,51.37,75.08,8.7,30,10.28,64,3.16,86.15-17.38,55.32-71.92,93.26-130.4,95.63-49.79,1.58-102-19.76-124.87-56.12Zm121.71,34.78c51.37,0,99.58-31.61,114.59-80.61,5.54-18.18,4-47.43-3.15-74.29a153.28,153.28,0,0,0-15.81-36.36,80.66,80.66,0,0,1-3.16,11.06,32.79,32.79,0,0,1-13.44,17.39c-5.53,3.95-11.86,5.53-19.75,5.53-28.46-1.58-27.67-22.12-27.67-56.11,0-15,.79-33.2-2.37-53.74-4-23.71-18.17-45.84-32.4-61.65,6.32,19.76,7.9,35.56,6.32,48.21-1.58,11.06-5.53,19.76-11.06,26.08a44.58,44.58,0,0,1-19.76,12.65,31.82,31.82,0,0,1-23.71-4.75c-13.43-8.69-19-23.7-21.34-37.14-4,6.32-7.11,15.81-7.9,28.45-.79,18.18,10.27,38.73,20.55,57.7,11.06,19.76,21.33,38.72,19.75,56.11-1.57,14.23-8.69,22.92-17.38,26.88a18.39,18.39,0,0,1-12.65,2.36,26.23,26.23,0,0,1-12.64-4c-7.91-4.74-13.44-15-14.23-28.45a38.79,38.79,0,0,0-12.64-22.92c-.79,8.69-3.16,18.18-5.54,26.87-9.48,32.4-8.69,64.81,10.28,94.84,22.13,35.57,67.17,46.63,105.11,45.84Z" transform="translate(-177.63 -174.32)"/><path class="cls-1" d="M1822.44,1903.82c-2.37,14.22-7.11,34-19,49-5.54,7.89-7.91,16.59-7.12,24.49a21.91,21.91,0,0,0,2.38,10.28c1.57,2.37,3.15,5.53,6.32,7.11,4.74,3.16,11.06,5.53,20.54,4.75a30.41,30.41,0,0,0,18.18-8.7,41.93,41.93,0,0,0,6.32-11.86,37.12,37.12,0,0,0,1.58-16.6c-.78-16.59-9.48-37.14-29.24-58.47ZM1787.67,1941c17.39-23.71,16.6-59.28,16.6-59.28v-22.92l16.59,15c34.77,31.61,49,62.44,51.37,86.93a83.48,83.48,0,0,1-3.16,24.51,55,55,0,0,1-10.28,19c-8.69,8.7-19,14.23-31.6,15-14.23,1.58-26.09-2.37-34-8.7a43.19,43.19,0,0,1-12.64-14.22,62.41,62.41,0,0,1-4.75-17.39c-.78-12.64,3.16-26.07,11.86-37.93Z" transform="translate(-177.63 -174.32)"/><path class="cls-1" d="M1647,2111.67l73.5-34,6.33,13.43-73.5,34Zm82.19-37.94,13.44-7.11,6.32,14.22-13.43,6.33Z" transform="translate(-177.63 -174.32)"/><polygon class="cls-1" points="1485.16 1955.53 1539.7 1930.24 1546.02 1943.68 1490.7 1968.96 1485.16 1955.53"/><polygon class="cls-1" points="1698.55 1902.57 1741.23 1923.92 1734.9 1937.35 1691.44 1916.01 1698.55 1902.57"/><polygon class="cls-1" points="1678.79 1918.39 1761.78 1961.06 1754.66 1973.71 1672.47 1931.82 1678.79 1918.39"/><path class="cls-1" d="M1403.9,2282.92h258.9v20.88H1403.9Z" transform="translate(-177.63 -174.32)"/><path class="cls-1" d="M1203.22,2303.8H964.88v-20.88h238.34Zm-278.43,0H838.5l-15.74-20.88h102Z" transform="translate(-177.63 -174.32)"/><rect class="cls-1" x="638.5" y="1906.14" width="51.78" height="20.88"/><path class="cls-1" d="M1207.4,740c36.75-35.08,101-114.41,159.51-187.91,29.23-37.58,57.63-72.66,81-100.22,52.61-62.64,89.35-55.95,130.27-22.55,13.37,11.7,27.56,26.72,42.6,42.59a99.47,99.47,0,0,0,9.18,10l6.68,6.68c58.46,61.8,133.63,141.14,193.76,122.77,71.82-21.72,130.28,40.92,178.72,92.7h0l5.84,6.68V710c14.2,15,41.76,44.27,74.33,77.68,33.41,34.24,71,72.66,103.56,106.06l-15,14.2c-33.41-33.41-71-71.82-103.56-105.23-32.57-34.24-61-63.47-74.33-77.67h0l-5.84-6.68h0c-45.1-47.61-97.72-104.4-157.85-86-72.66,21.72-152.83-63.47-214.63-128.61l-6.68-7.52q-5-5-10-10c-15-15.86-28.4-30.07-40.93-40.08-30.06-25.9-58.46-30.07-100.21,19.2-22.55,27.57-51,62.64-80.17,100.23C1324.32,639,1260,720,1222.43,755.89Z" transform="translate(-177.63 -174.32)"/><path class="cls-1" d="M554.77,1102.77H448.63l10-16.7q33.83-51.37,62.64-105.23c19.21-36.75,37.58-73.49,54.28-111.08l9.19-21.71,10,21.71c16.7,36.75,34.24,73.5,53.45,109.41s40.09,71.82,62.64,106.9l10.85,16.7H570.28v-21.71H682.47c-18.37-30.07-36.74-61-52.61-91.87C614,960,599,929.9,584.76,899.83c-14.2,30.9-29.23,61-45.1,91q-25,46.35-52.61,90.2h67.72Z" transform="translate(-177.63 -174.32)"/><path class="cls-1" d="M650.74,1089.41a860.74,860.74,0,0,0,37.58,80.17c15,26.73,30.9,53.46,48.44,80.18l11.68,15.87H588.1v-20.88H708.36C695,1223,681.63,1201.32,670,1179.61a731.47,731.47,0,0,1-38.42-82.68ZM548.53,1265.63H421.08l12.52-16.7a825.57,825.57,0,0,0,47.6-75.17,707.4,707.4,0,0,0,39.25-87.69l20,7.51a640.5,640.5,0,0,1-40.92,90.21,625.09,625.09,0,0,1-37.59,61h86.54Z" transform="translate(-177.63 -174.32)"/><path class="cls-1" d="M679.13,1257.28c10.85,26.72,22.55,52.61,36.75,78.51s30.06,51.77,46.76,76.83l11.7,16.7H606.48v-21.71H734.25a669,669,0,0,1-36.75-61.81,787.44,787.44,0,0,1-37.58-81Zm-91.86,172H557.2v-21.71h30.07Zm-85.19,0H394.35l13.36-17.54a544.79,544.79,0,0,0,47.61-72.66c14.19-25,25.88-52.61,35.07-81l20,6.67c-10,29.24-21.71,57.63-36.74,84.36a462.41,462.41,0,0,1-36.75,58.46h65.14Z" transform="translate(-177.63 -174.32)"/><path class="cls-1" d="M700,1410.11c13.36,30.07,25.89,56.8,40.09,83.52s30.06,53.45,49.27,82.68l10.86,16.7H588.38V1571.3H761c-15-23.39-27.55-45.1-39.25-67.65-15-26.73-27.56-54.29-41.76-85.18ZM533.28,1592.93l-143.94.08H366.79l15-17.53c20-24.22,35.08-47.61,49.28-73.5,13.35-26.72,25-56,38.41-91l20.05,7.52c-13.37,35.91-25.89,66-40.09,92.7-10.86,20.87-22.55,40.92-37.58,60.13l121.39-.08Z" transform="translate(-177.63 -174.32)"/><path class="cls-1" d="M689.16,1578.82c7.51,20.88,16.7,40.08,25.88,60.13a657.45,657.45,0,0,0,31.73,57.62l-13.35,8.36c-11.7-19.21-22.55-39.26-32.58-59.3s-18.37-40.09-26.72-61Z" transform="translate(-177.63 -174.32)"/><path class="cls-1" d="M657,1578.82c4.18,10.85,8.35,20.88,13.37,31.73,4.17,10.86,9.18,20.88,14.19,30.9L670.36,1649c-5-10.87-10-21.72-15-31.75q-6.26-16.27-12.52-32.57Zm36.75,79.34c1.67,5,4.17,8.35,5.84,11.69h0c1.68,2.5,3.35,6.68,5.85,10.86l-13.36,7.51c-2.51-3.33-4.18-7.51-6.68-10.85h0c-1.67-4.18-4.18-7.52-5.85-11.7Z" transform="translate(-177.63 -174.32)"/><path class="cls-1" d="M661.59,1413.45c4.18,11.7,9.19,24.22,15,36.75s11.69,24.22,17.53,35.91l-14.2,7.52c-5.84-12.53-11.68-24.22-17.53-36.75s-10.86-25.05-15.87-37.58Zm42.6,91a74.41,74.41,0,0,0,7.51,13.36l7.52,12.52-13.36,8.36c-2.51-4.18-5.85-8.36-8.36-13.36-1.67-3.35-4.17-7.52-7.52-13.37Z" transform="translate(-177.63 -174.32)"/><path class="cls-1" d="M625.68,1412.62c1.67,4.17,3.34,8.35,5.85,14.2,1.67,5.85,4.18,12.52,7.51,20.87l-14.19,5.85a124,124,0,0,1-8.35-21.71c-1.67-5-3.35-8.35-5-12.53Zm21.72,51.78c2.5,4.18,5.84,11.69,9.18,19.21,4.18,9.19,8.35,19.21,10.86,23.38l-14.2,7.52c-2.5-5-7.51-15-11.69-25.06-3.34-7.51-5.84-15-7.51-17.54Z" transform="translate(-177.63 -174.32)"/><path class="cls-1" d="M625.68,1582.07c1.67,4.18,3.34,8.35,5.85,14.2,1.67,5.85,4.18,12.53,7.51,20.88L624.85,1623a123.76,123.76,0,0,1-8.35-21.72c-1.67-5-3.35-8.35-5-12.52Zm21.72,51.78c2.5,4.18,5.84,11.7,9.18,19.21,4.18,9.19,8.35,19.21,10.86,23.38l-14.2,7.52c-2.5-5-7.51-15-11.69-25-3.34-7.52-5.84-15-7.51-17.54Z" transform="translate(-177.63 -174.32)"/><path class="cls-1" d="M641.55,1259c5,12.53,10.86,25.89,16.71,39.25,5.84,12.53,11.69,25.89,18.37,38.42l-14.2,7.51c-6.68-13.36-13.36-26.72-19.21-40.09-5.85-12.52-10.86-25.88-16.7-39.25Zm41.76,91c1.67,3.34,3.34,6.69,5.85,10.86h0a62.61,62.61,0,0,0,5.84,10l-14.2,8.35c-1.67-3.34-3.34-6.68-5.84-10.85h0c-1.68-2.51-3.35-6.69-5.85-10.86Z" transform="translate(-177.63 -174.32)"/><path class="cls-1" d="M608.14,1259l.84,2.5c4.17,10.86,10.86,27.56,14.2,35.91L609,1304c-4.18-9.18-10.86-25.88-15-36.74l-.84-2.51Zm23.39,55.12c3.34,7.51,3.34,9.19,6.68,15l.83,1.67-14.19,6.68-.84-.83c-3.34-6.68-4.17-8.35-7.51-15.87Z" transform="translate(-177.63 -174.32)"/><path class="cls-1" d="M592.27,1095.43l.84,2.51c4.17,10.86,10.86,27.56,14.2,35.91l-14.2,6.68c-4.18-9.18-10.86-25.88-15-36.74l-.84-2.51Zm23.39,55.13c3.34,7.51,3.34,9.18,6.68,15l.83,1.67L609,1173.94l-.84-.84c-3.34-6.67-4.17-8.35-7.51-15.86Z" transform="translate(-177.63 -174.32)"/><path class="cls-1" d="M619.84,1094.42l2.5,6.68c8.35,21.72,13.37,34.24,25.06,57.63l-14.2,6.68c-12.53-24.22-16.7-35.92-25.89-58.46l-2.51-6.68Zm35.07,77.67a55.59,55.59,0,0,0,5,10c4.18,9.18,10.86,20.87,13.36,25.05l-14.19,7.52c-3.34-5-9.19-16.71-13.36-25.06a54.25,54.25,0,0,1-5-10Z" transform="translate(-177.63 -174.32)"/><path class="cls-1" d="M603.13,962.46C609,973.32,614,983.35,619,993.36c5.85,10,11.69,20.89,17.54,30.91l-13.36,8.35a300.1,300.1,0,0,1-17.54-31.74C599.8,990,594,980,588.93,969.15Zm40.92,75.17c2.51,2.51,4.18,5.85,6.69,10,2.5,3.33,4.17,6.68,6.68,10L644.05,1066a70.71,70.71,0,0,1-6.68-10,69,69,0,0,0-6.68-10Z" transform="translate(-177.63 -174.32)"/><path class="cls-1" d="M1543.13,468.6A184.65,184.65,0,0,1,1579,497q17.54,16.29,35.07,35.07l7.52,7.52C1677.59,598,1749.41,673.21,1807,659c69.31-17.54,125.27,41.76,172.87,91.87l5.84,6.68c7.52,7.52,18.38,19.21,32.57,33.41,15,15.86,33.41,34.24,52.62,53.45l-15,15c-20-20.05-38.41-38.41-53.44-54.28-13.37-14.2-24.22-25.06-31.74-33.41h0l-5.85-5.85c-44.26-46.76-95.2-101-152.83-86.85-69.31,18.37-146.14-62.64-206.28-125.28l-6.67-6.68c-11.7-12.53-22.56-24.22-34.25-35.08-10.85-10-21.71-19.2-32.57-25Zm546.18,395c10.85,10.85,21.71,22.55,33.41,34.24s23.38,24.22,35.07,35.91l-15,14.2c-11.69-10.86-23.38-23.39-35.08-35.91-11.69-10.86-22.54-22.55-33.4-33.41Z" transform="translate(-177.63 -174.32)"/><path class="cls-1" d="M1543.13,530.39c4.17,3.34,10,7.52,15,11.7,5,5,10,9.19,14.19,14.19l-14.19,15c-5-5-10-9.19-14.21-13.36-4.18-3.34-9.18-7.52-13.36-10.86Zm42.59,38.42c2.51,2.51,4.18,5,6.68,7.52,2.51,1.67,4.17,4.18,6.69,6.68l6.67,6.68c53.45,56,122.77,127.78,177.89,116.09,66-13.36,120.26,43.43,167,92.7l5.85,5.85h0c13.37,14.2,37.59,39.26,66,67.65,31.73,31.74,68.48,68.48,100.22,101.06l-15,15c-32.57-32.57-68.48-69.32-100.21-101.89-28.4-28.4-52.62-53.45-66-66.82v-.83l-5.84-5.85c-42.6-45.1-92.7-96.88-147.82-86C1721,740,1647.52,664,1590.73,604.73l-7.51-7.52c-1.68-2.51-4.18-4.17-5.85-6.69-2.5-2.5-4.18-4.16-6.68-6.67Z" transform="translate(-177.63 -174.32)"/><path class="cls-1" d="M1525.59,580.51c6.68,4.17,12.53,9.18,19.21,15,6.68,5,12.52,11.69,19.2,17.54l-15,15c-5.84-5.84-12.52-11.69-18.37-16.7s-11.69-10-16.7-13.37Zm57.63,52.61,6.68,6.68c51.78,53.45,117.76,121.1,170.37,113.59,24.22-3.35,46.77,2.5,68.48,13.36,20.87,10.86,40.08,26.72,58.46,44.26L1873,826c-17.54-15.86-35.08-30.89-54.29-40.08-17.53-10-35.91-15-55.12-11.7-64.3,9.19-133.62-62.63-188.73-119.42l-6.69-6.69Zm344.08,218c5.84,5.85,20,20.88,41.75,42.59,25.06,25.06,45.1,45.93,57.63,57.63l-15,15L1954,908.73c-13.37-13.36-28.39-28.4-41.76-42.6ZM2042.54,968l22.55,22.55,22.55,22.55-15,15c-7.52-7.52-15-15-21.72-22.55l-23.38-23.39Z" transform="translate(-177.63 -174.32)"/><path class="cls-1" d="M1499.7,625.61c11.69,5.84,22.55,15,34.24,25s22.55,21.71,33.41,32.57h0l6.68,7.52c50.11,50.94,111.91,113.58,162.85,109.4,61-5,111.07,46.77,155.34,91.87l5.84,5.85h0l11.69,11.69c33.41,34.24,93.54,94.37,142.82,143.64l-14.2,15c-50.11-50.11-110.24-109.41-143.65-143.65L1883,912.9h0l-5.84-5.84c-40.93-41.76-87.69-90.2-138.64-85.19-60.13,5-126.11-62.64-179.55-116.93l-6.68-6.67h0a385.31,385.31,0,0,0-32.58-31.75c-10-9.18-20-16.7-30.06-21.7Z" transform="translate(-177.63 -174.32)"/><path class="cls-1" d="M1516.4,699.93a89,89,0,0,1,10,8.35l9.18,9.19-15,15c-2.5-3.35-5.85-5.85-9.19-9.19-2.5-2.5-5.85-5-8.35-7.52Zm35.92,34.25,6.68,6.67h0c47.6,48.45,106.06,107.74,154.5,106.91,57.62-.84,106.06,48.44,149.49,91.86l5.84,5.85-15,14.2-5.85-5.84c-40.08-40.09-85.18-86-133.62-85.19-57.62.83-119.42-61.81-170.37-112.75h0l-6.68-7.52Zm350.76,244.7,21.71,21.71c29.23,29.24,59.75,59.3,89.82,89.36l-14.2,15c-30.9-30.07-61.42-60.13-90.66-89.37L1888,993.91Z" transform="translate(-177.63 -174.32)"/><path class="cls-1" d="M1353.18,910.79c10,5,20,12.52,30.06,21.71,10,8.35,19.21,18.38,29.23,28.4h0l6.68,6.68h0c45.93,45.93,101.06,101.05,147.82,104.4,54.29,2.5,101.06,49.27,142.81,91l5.85,5.85,23.38,23.37c9.19,8.36,34.25,31.81,44.27,41.83l-15,15c-10-10-35.08-32.63-44.26-41.82s-16.7-17.54-23.38-23.38h0l-5.85-5.85c-39.25-39.25-82.68-82.68-129.44-85.19-54.29-3.34-112.75-61.8-161.19-110.24h0l-6.68-6.68h0a294.07,294.07,0,0,0-28.39-27.56c-8.36-7.52-17.54-15-25.9-19.21Z" transform="translate(-177.63 -174.32)"/><path class="cls-1" d="M1330.17,961.36c5.84,2.51,23.82,16.22,29.66,21.23l-14.19,15.87c-5.85-5-20.49-16.22-25.5-18.72Zm47.2,39.23,6.68,6.69h0c44.26,44.26,96,95.2,140.31,101,51.77,7.52,96,51,136.12,91l6.69,5.85-15,15-5.84-5.85c-38.43-37.58-80.18-78.5-124.44-85.18-51.78-6.68-106.07-61-152-106.91h0l-7.52-6.67ZM1683,1221.08c7.51,7.51,17,15.86,26.16,25.05l-15,15c-9.18-9.19-18.64-17.53-25.32-25.05Z" transform="translate(-177.63 -174.32)"/><path class="cls-1" d="M1283,1174.31c5,4.17,10.85,8.35,15.86,13.36,5,4.18,10.86,9.18,15.87,14.2h0c6.68,6.68,14.2,13.36,20.88,20,7.52,7.52,15.87,14.2,20.88,19.21L1342.3,1257c-8.36-8.36-15-14.2-20.89-20-6.68-5.85-13.35-12.53-20.87-19.2h0c-5-5-10-10-15.87-14.2a98.55,98.55,0,0,0-15-12.53Z" transform="translate(-177.63 -174.32)"/><path class="cls-1" d="M1247.08,1211.06a161.47,161.47,0,0,1,21.72,14.19c5.85,5,12.53,10.86,20.88,18.38l-14.2,15.86c-8.35-7.51-13.36-12.52-20-17.53-5-4.18-10.86-7.52-18.38-11.7Z" transform="translate(-177.63 -174.32)"/><path class="cls-1" d="M1129.73,753.39c41.76,2.5,81.84,42.59,121.1,80.17,7.51,6.68,15,14.2,22.55,21.71l-14.2,15c-7.52-6.68-15-14.2-23.39-21.72-35.91-35.07-73.49-71.82-107.73-74.33Zm154.5,112.74c7.52,7.52,27.64,27.56,28.47,28.4l-13.36,15.86c-1.67-1.67-22.62-22.54-30.14-30.06Z" transform="translate(-177.63 -174.32)"/><path class="cls-1" d="M1105.52,815.19c4.17-.84,9.18-.84,14.19-.84s9.19.84,14.2,1.67l-4.18,20.88a49.12,49.12,0,0,0-10.86-1.67,51,51,0,0,0-10.85.84Zm47.6,6.68c30.9,12.52,59.29,39.25,87.69,66.81,11.69,10,22.54,20.88,34.24,30.91l-13.36,15.86a428.28,428.28,0,0,1-35.08-31.73c-27.56-25.89-54.28-51-81.85-62.64Z" transform="translate(-177.63 -174.32)"/><path class="cls-1" d="M1066.64,927.46c55.12-14.19,101,28.4,148.65,71.83,5.85,5,11.69,10,17.54,15.86,2.51,2.51,8.36,7.52,14.2,13.37,7.52,7.51,15.87,15.87,19.21,17.53l-14.2,16.71c-3.34-2.51-11.69-11.69-20-19.21-5.85-5.85-11.69-10.85-13.37-13.37-5-4.17-11.69-10-17.53-15.86-43.43-39.25-85.18-77.67-129.45-66Z" transform="translate(-177.63 -174.32)"/><path class="cls-1" d="M1067.93,1035.56c18.38,3.35,35.91,11.7,52.62,22.56s33.4,24.21,49.27,38.41l-14.2,15.87c-15-13.36-30.9-26.73-45.93-36.75-15-9.18-30.07-16.7-45.1-19.2Zm115.25,72.67,5.85,5h0l1.66.83h0c3.35,4.17,6.68,6.69,10.86,10L1188.19,1140c-6.68-5-9.18-7.51-13.36-10.86-5-4.17,3.34,2.51-5-5Zm5.85,5c1.66.83,1.66,1.67,1.66.83" transform="translate(-177.63 -174.32)"/><path class="cls-1" d="M1027.85,1092.35c4.17,0,8.35-.83,12.52,0a62.83,62.83,0,0,1,12.53.84l-3.34,20.88a40.93,40.93,0,0,0-10-.83h-10Zm40.92,4.18c13.36,3.34,25,9.19,36.74,15.87a352.27,352.27,0,0,1,33.41,23.38l-12.52,16.71c-11.7-8.35-21.72-15.87-31.75-21.71s-20-10.86-30.89-13.37Z" transform="translate(-177.63 -174.32)"/><path class="cls-1" d="M1032,1146.64c13.36.84,19.21,3.34,29.23,7.51,2.51.84,4.18,1.68,5,1.68l-8.35,20c-2.51-1.67-4.18-1.67-5-2.5a59.55,59.55,0,0,0-22.55-5.85Zm46.77,15c3.34,1.68,6.68,4.18,10,5.85a62,62,0,0,1,10,5.85L1088,1190.9c-3.33-1.66-5.84-3.34-9.18-5a93.81,93.81,0,0,0-9.19-5Z" transform="translate(-177.63 -174.32)"/><polygon class="cls-1" points="1448.81 1780.87 1434.58 1802.59 244.15 1802.59 244.15 1780.87 1448.81 1780.87"/><path class="cls-1" d="M1556.59,2027H1222.27V2005.3h334.32Zm-379.42,0H1021V2005.3h156.17Z" transform="translate(-177.63 -174.32)"/><rect class="cls-1" x="293.21" y="1841.84" width="56.53" height="21.71"/><path class="cls-1" d="M1467.35,806c4.28,4.33,8.52,8.69,12.76,12.92l6.68,7.51c50.1,50.95,111.9,113.59,162.85,109.41,61-5,111.07,46.77,155.33,91.86l5.85,5.85,11.68,11.69c33.42,34.24,71.63,71.83,120.9,121.1l-14.2,15c-50.1-50.11-88.31-86.86-121.72-121.1l-11.7-11.7-5.84-5.84c-40.92-41.76-87.69-90.2-138.63-85.19-60.14,5-126.11-62.64-179.56-116.92l-6.68-6.68c-3.38-3.64-6.77-7.17-10.15-10.63Z" transform="translate(-177.63 -174.32)"/><path class="cls-1" d="M1466,728.52c4.27,3.41,8.57,7.08,13,10.87,11.69,10,22.54,21.71,33.41,32.57l6.68,7.52c50.11,50.94,111.91,113.58,162.85,109.4,61-5,111.07,46.77,155.34,91.87l5.84,5.85,11.69,11.69c33.41,34.24,76.39,78.41,125.66,127.68l-14.2,15c-50.1-50.11-93.08-93.45-126.49-127.69l-11.69-11.7-5.85-5.83c-40.92-41.76-87.68-90.2-138.63-85.2-60.14,5-126.11-62.63-179.56-116.92l-6.68-6.67a383.71,383.71,0,0,0-32.57-31.75c-3.32-3-6.63-5.81-10-8.45Z" transform="translate(-177.63 -174.32)"/><rect class="cls-1" x="416.91" y="1625.03" width="803.96" height="23.19" transform="matrix(0.56, -0.83, 0.83, 0.56, -1172.81, 1220.88)"/><rect class="cls-1" x="1192.5" y="1234.98" width="23.19" height="800.12" transform="matrix(0.83, -0.56, 0.56, 0.83, -888.11, 784.24)"/><polygon class="cls-1" points="1511.91 1189.45 1505.71 1189.41 833.65 1184.46 833.82 1161.27 1499.68 1166.17 1527.14 1125.73 1546.32 1138.75 1511.91 1189.45"/><rect class="cls-1" x="1863.9" y="1238.01" width="23.19" height="794.06" transform="translate(-772.21 1161.36) rotate(-34.17)"/><path class="cls-1" d="M889.63,1973.51l-95.8-56.91,5.16-9.76c1-1.86,99.63-190.19,192-524.89l22.35,6.18c-81.18,294.28-167.44,476.66-188.82,519.7l77,45.74Z" transform="translate(-177.63 -174.32)"/><path class="cls-1" d="M895.55,1963.54l112.21-597.13a4.29,4.29,0,0,1,8.38-.26l115.64,597.38Z" transform="translate(-177.63 -174.32)"/><path class="cls-1" d="M564.72,1882c-2,29-5.29,57.53-9.23,84H577c4-26.14,7.28-54.14,9.45-82.38,3.34-47.6,2.5-96.88-3.34-139.47l-21.71,2.5C568.06,1788.44,568.06,1836.05,564.72,1882Z" transform="translate(-177.63 -174.32)"/><path class="cls-1" d="M633,1904.9c-4.47-52.6-7.18-110.22-3.93-159.05l-20.88-.84c-4.38,58.65.23,129.12,6.28,189.09Z" transform="translate(-177.63 -174.32)"/><path class="cls-1" d="M1297.59,813.52c-15-14.2-34.24-33.41-40.91-40.09l-6.68-5.85c-16.71-16.7-32.58-33.4-50.12-46.76-47.6-37.59-96.87-50.12-154.49,24.21-49.52,63-237.36,295.88-354.91,441.1l11.48,19c117.27-145.1,309.42-383.23,360.13-447.62,46.76-60.13,86-50.11,124.43-20,16.7,12.52,32.57,29.23,49.27,45.09l5.85,5.85c5.84,5.85,24.22,23.39,40.93,40.09,10.85,10,19.21,18.37,23.38,22.55l14.19-15.87C1316,831.06,1306.79,822.7,1297.59,813.52Z" transform="translate(-177.63 -174.32)"/><path class="cls-1" d="M755.32,1735H385.16a563.63,563.63,0,0,0,38.42-60.13c15-27.56,27.56-57.63,38.41-89.36l-20.87-6.68a417.63,417.63,0,0,1-36.75,86c-14.19,26.72-30.9,50.94-49.27,74.33l-13.36,16.7H742.09Z" transform="translate(-177.63 -174.32)"/><path class="cls-1" d="M770.6,1710.87l12.72-20.07c-6.07-10-11.94-20-17.33-30.14A736.66,736.66,0,0,1,728.41,1578l-20,7.52c11.69,29.23,24.23,57.63,39.25,85.18C754.87,1684.16,762.51,1697.6,770.6,1710.87Z" transform="translate(-177.63 -174.32)"/><rect class="cls-1" x="394.84" y="1841.84" width="47.21" height="21.71"/><rect class="cls-1" x="455.32" y="1841.84" width="247.69" height="21.71"/><rect class="cls-1" x="578.28" y="1977.13" width="279.26" height="21.71"/><rect class="cls-1" x="442.05" y="1977.13" width="103.99" height="21.71"/><rect class="cls-1" x="1772.75" y="1542.15" width="23.19" height="57.61" transform="translate(-747.16 1063.36) rotate(-33.3)"/><rect class="cls-1" x="1687.29" y="1330.88" width="23.19" height="219.99" transform="translate(-689.77 995.1) rotate(-33.3)"/><rect class="cls-1" x="1658.8" y="1385.78" width="23.19" height="160.18" transform="translate(-708.17 983.53) rotate(-33.3)"/><rect class="cls-1" x="1594.52" y="1345.19" width="23.19" height="45.69" transform="translate(-665.04 932.38) rotate(-33.31)"/><rect class="cls-1" x="1660.43" y="1499.91" width="23.19" height="84.03" transform="matrix(0.84, -0.55, 0.55, 0.84, -749.68, 996.99)"/><rect class="cls-1" x="1579.31" y="1335.28" width="23.19" height="166.29" transform="translate(-695.19 932.15) rotate(-33.3)"/><rect class="cls-1" x="1593.63" y="1467.66" width="23.19" height="97.92" transform="translate(-746.75 956.13) rotate(-33.3)"/><rect class="cls-1" x="1536.17" y="1393.9" width="23.19" height="70.52" transform="translate(-708.17 910.25) rotate(-33.3)"/><rect class="cls-1" x="1494.57" y="1345.62" width="23.19" height="40.46" transform="translate(-680.25 877.09) rotate(-33.31)"/><rect class="cls-1" x="1562.46" y="1520.15" width="23.19" height="48.12" transform="translate(-767.01 943.5) rotate(-33.3)"/><rect class="cls-1" x="1497.59" y="1366.45" width="23.19" height="158.03" transform="translate(-723.45 891.68) rotate(-33.3)"/><rect class="cls-1" x="1554.61" y="1569.66" width="23.19" height="65.07" transform="translate(-800.14 948.74) rotate(-33.3)"/><rect class="cls-1" x="1456.76" y="1328.44" width="23.19" height="249.59" transform="translate(-734.43 870.57) rotate(-33.3)"/><rect class="cls-1" x="1420.13" y="1385.78" width="23.19" height="160.18" transform="translate(-747.37 852.49) rotate(-33.3)"/><rect class="cls-1" x="1355.85" y="1345.19" width="23.19" height="45.69" transform="translate(-704.24 801.32) rotate(-33.31)"/><rect class="cls-1" x="1429.39" y="1497.63" width="23.19" height="111.79" transform="translate(-794 872.08) rotate(-33.31)"/><rect class="cls-1" x="1340.64" y="1335.28" width="23.19" height="166.29" transform="translate(-734.39 801.11) rotate(-33.3)"/><rect class="cls-1" x="1357.19" y="1467" width="23.19" height="106.02" transform="translate(-787.45 826.88) rotate(-33.3)"/><rect class="cls-1" x="1297.5" y="1393.9" width="23.19" height="70.52" transform="translate(-747.37 779.2) rotate(-33.3)"/><rect class="cls-1" x="1255.91" y="1345.62" width="23.19" height="40.46" transform="translate(-719.45 746.04) rotate(-33.31)"/><rect class="cls-1" x="1357.04" y="1510.21" width="23.19" height="169.2" transform="translate(-828.52 839.03) rotate(-33.3)"/><rect class="cls-1" x="1258.93" y="1366.45" width="23.19" height="158.03" transform="translate(-762.64 760.64) rotate(-33.3)"/><rect class="cls-1" x="1278.41" y="1462.07" width="23.19" height="166" transform="translate(-814.13 787.72) rotate(-33.3)"/><rect class="cls-1" x="1182.55" y="1339.07" width="23.19" height="120.15" transform="translate(-749.76 711.12) rotate(-33.3)"/><rect class="cls-1" x="1181.47" y="1385.78" width="23.19" height="160.18" transform="translate(-786.56 721.45) rotate(-33.3)"/><rect class="cls-1" x="1117.19" y="1345.19" width="23.19" height="45.69" transform="translate(-743.45 670.26) rotate(-33.31)"/><rect class="cls-1" x="1224.89" y="1590.55" width="23.19" height="29.94" transform="translate(-856.13 768.3) rotate(-33.3)"/><rect class="cls-1" x="1183.11" y="1499.91" width="23.19" height="84.05" transform="matrix(0.84, -0.55, 0.55, 0.84, -828.09, 734.95)"/><rect class="cls-1" x="1111.99" y="1368.77" width="23.19" height="129.81" transform="translate(-780.3 678.05) rotate(-33.3)"/><rect class="cls-1" x="906.42" y="2020.33" width="47.72" height="21.71"/><rect class="cls-1" x="1471.66" y="2006.93" width="143.84" height="20.88"/><path class="cls-1" d="M1119.11,990.14c-17-10.48-37.89-15.46-54.19-14.91l1,21.5c14.22-.35,28.22,4,42.14,11.39Z" transform="translate(-177.63 -174.32)"/><path class="cls-1" d="M1226.53,1079c-5.84-5.85-11.69-10.85-14.2-13.37-5.85-5.84-11.69-10.85-17.54-15.86-23-21-38.24-37-61.72-51.3l-11.89,17.46c19.73,12.91,39.39,30.77,59.42,48.87,5.84,5.85,12.52,11.69,17.53,15.87,1.68,2.51,7.52,7.52,13.37,13.37,8.35,7.51,16.7,16.7,20,19.2l14.2-16.7C1242.39,1094.86,1234.05,1086.51,1226.53,1079Z" transform="translate(-177.63 -174.32)"/><path class="cls-1" d="M1243.4,984.32l13.83-16c-1.63-1.49-3-2.73-3.9-3.64-5.85-5.85-11.69-10.85-17.54-15.87-47.6-43.43-93.53-86-148.64-71.82l5,20.88c44.27-11.69,86,26.72,129.45,66,5.84,5.84,12.53,11.68,17.53,15.86A35.63,35.63,0,0,0,1243.4,984.32Z" transform="translate(-177.63 -174.32)"/><path class="cls-1" d="M1267.53,978.05c-.43-.44-.87-.86-1.3-1.29L1253,993.5c8.2,7.44,16.31,16.33,19.59,18.79l14.19-16.71C1283.4,993.91,1275.05,985.56,1267.53,978.05Z" transform="translate(-177.63 -174.32)"/><path class="cls-1" d="M1543.56,1241.12c-8.35-7.51-17.54-13.36-27.56-19.21l-10.86,17.54c8.36,5,16.71,11.69,25.89,18.37,8.35,6.69,16.71,14.2,25.06,21.72l14.2-15.87A225.34,225.34,0,0,0,1543.56,1241.12Z" transform="translate(-177.63 -174.32)"/><path class="cls-1" d="M1346.47,1101.65c-8.35-8.35-15.87-15.87-24.22-22.56-4.53-4.07-9.06-7.85-13.59-11.17l-14.3,15.9a97,97,0,0,1,13.7,11.14c7.51,6.69,15.85,14.21,23.37,21.72l6.69,6.68c41.75,40.09,89.36,85.19,134.45,100.22l5.85-20c-40.09-13.37-85.18-56.79-125.27-95.21Z" transform="translate(-177.63 -174.32)"/><path class="cls-1" d="M1501.81,1155.93c-42.6-9.18-91-56.79-132.79-97.71l-7.52-6.68a75.87,75.87,0,0,0-7.51-8.36c-.18-.18-.4-.36-.59-.55L1338.7,1058l.25.26,8.35,8.35,6.69,6.69c44.26,42.59,95.2,92.7,142.8,103.55,35.58,7.68,69.4,36.33,101.48,67l13.71-16.34C1578.68,1195.67,1542.29,1165,1501.81,1155.93Z" transform="translate(-177.63 -174.32)"/><path class="cls-1" d="M1285.49,1114.25,1273,1131.71a63.09,63.09,0,0,1,10,5.85c3.34,2.5,6.68,5.85,10.85,8.35l13.36-15.87c-4.17-3.34-7.51-6.68-11.69-9.19A66.51,66.51,0,0,0,1285.49,1114.25Z" transform="translate(-177.63 -174.32)"/><path class="cls-1" d="M1436.66,1241.12c-6.68-4.18-13.36-8.36-20-13.36l-12.53,17.54c7.52,5,15,10,21.71,14.19,7.52,4.18,14.2,8.36,21.72,10.86l8.35-19.21A143.08,143.08,0,0,1,1436.66,1241.12Z" transform="translate(-177.63 -174.32)"/><path class="cls-1" d="M1330.6,1151.76l-15,15,7.51,6.68c21.72,20.88,44.27,42.59,67.65,61l12.53-16.7c-22.55-18.38-45.1-39.26-66-59.3Z" transform="translate(-177.63 -174.32)"/><path class="cls-1" d="M1769.74,1146.9l-23.38-23.38-5.85-5.85c-41.76-41.75-88.53-88.53-142.81-91-46.77-3.35-101.89-58.46-147.82-104.4l-6.68-6.68c-10-10-19.21-20-29.23-28.4a170.9,170.9,0,0,0-15.94-13l-12,17.45c4.65,3.49,9.32,7.46,13.75,11.45a294.16,294.16,0,0,1,28.4,27.56l6.67,6.69c48.44,48.43,106.91,106.89,161.19,110.24,46.77,2.5,90.19,45.93,129.44,85.18l5.85,5.85c6.68,5.85,14.2,14.2,23.38,23.38s67.61,66.66,77.63,76.68l15-15C1837.35,1213.56,1778.92,1155.25,1769.74,1146.9Z" transform="translate(-177.63 -174.32)"/><path class="cls-1" d="M1442.47,875.38l13.71-16c-5.39-5.43-10.75-10.66-16.37-15.34-10-9.19-20-16.7-30.06-21.71l-10,18.37c8.36,4.17,17.55,11.69,25.9,19.21C1431.47,864.74,1437,869.94,1442.47,875.38Z" transform="translate(-177.63 -174.32)"/><polygon class="cls-1" points="1664.71 974.51 1649.68 989.55 1708.39 1048.85 1723.42 1033.81 1664.71 974.51"/><path class="cls-1" d="M1772.2,1080.35l-5.85-5.85c-41.75-41.75-88.52-88.52-142.8-91-46.77-3.34-101.89-58.46-147.83-104.39,0,0-5.9-5.71-7.33-7.16,0,0-8.13,9.05-14.37,15.51l6.67,6.68c48.44,48.43,106.9,106.89,161.19,110.24,46.76,2.5,90.19,45.93,129.44,85.19l5.85,5.85c6.68,5.84,14.2,14.19,23.38,23.37s19.21,18.38,29.23,28.4l15-15c-10-10-20-20-29.23-28.4Z" transform="translate(-177.63 -174.32)"/><polygon class="cls-1" points="1300.14 2020.58 969.33 2020.33 969.33 2042.04 1300.14 2041.59 1300.14 2020.58"/><polygon class="cls-1" points="1322.98 2020.59 1322.98 2041.58 1361.97 2041.51 1361.97 2020.63 1322.98 2020.59"/><path class="cls-1" d="M1398.59,2077.12h-89.07l2.51,13.36s6.67,30.91-38.42,30.91c-40.92,0-41.76-23.39-41.76-29.24,0-7.51-.84-11.69-10.85-11.69H893.81v20.88h318c2.5,15,12.53,40.93,61.8,40.93s58.46-26.73,60.13-43.44h64.85Z" transform="translate(-177.63 -174.32)"/><rect class="cls-1" x="1245.9" y="1902.8" width="60.74" height="21.72"/><path class="cls-1" d="M786.21,833.75a201.15,201.15,0,0,1-120.46-40.09C620.29,759.94,591.6,710.3,585,653.87A203.21,203.21,0,0,1,794.73,427.34,12.69,12.69,0,0,1,798.5,452,153.84,153.84,0,0,0,700.84,633.1c18,75.24,92.28,126.43,169.1,116.63h0A154.64,154.64,0,0,0,940.43,722a12.7,12.7,0,0,1,18.16,17.08A203.81,203.81,0,0,1,822.7,830.49,207.45,207.45,0,0,1,786.21,833.75Zm-36.29-381q-7.83,1.62-15.54,3.94c-83,24.92-138,108.61-127.83,194.66,5.94,50.42,31.56,94.77,72.15,124.87a179.76,179.76,0,0,0,140.16,32.89,181.88,181.88,0,0,0,93.56-47.65,177.45,177.45,0,0,1-39.71,9.86h0c-87.65,11.25-172.42-47.24-193-133.12A175.74,175.74,0,0,1,749.92,452.72Zm121.4,307.79h0Z" transform="translate(-177.63 -174.32)"/><path class="cls-1" d="M2213.27,1762.62a8.33,8.33,0,0,1-3.88-.95,8.44,8.44,0,0,1-3.62-11.37c.88-1.7,8.95-16.78,21.95-23a8.46,8.46,0,1,1,7.3,15.26c-6.69,3.2-12.55,12.29-14.23,15.52A8.47,8.47,0,0,1,2213.27,1762.62Z" transform="translate(-177.63 -174.32)"/><path class="cls-1" d="M2214.68,1781.4a8.44,8.44,0,0,1-8.14-6.2h0c-1.63-5.82-8.05-22.16-18.12-27.79a8.45,8.45,0,1,1,8.24-14.76c18,10.08,25.4,35.22,26.18,38a8.47,8.47,0,0,1-5.91,10.4A8.76,8.76,0,0,1,2214.68,1781.4Z" transform="translate(-177.63 -174.32)"/><path class="cls-1" d="M2190.46,1785.34a8.47,8.47,0,0,1-7.37-4.28h0c-1.5-2.63-5.15-7.34-8.53-8.81a8.46,8.46,0,1,1,6.74-15.51c9.66,4.19,15.84,14.8,16.51,16a8.45,8.45,0,0,1-7.35,12.6Z" transform="translate(-177.63 -174.32)"/><path class="cls-1" d="M2026.86,1599.15a9.67,9.67,0,0,1-9.66-9.67V1342.25a9.67,9.67,0,0,1,19.33,0v247.23A9.67,9.67,0,0,1,2026.86,1599.15Z" transform="translate(-177.63 -174.32)"/><path class="cls-1" d="M1995.43,1552.35a9.66,9.66,0,0,1-3.38-18.72c11.92-4.44,21-10.82,27.09-19a9.66,9.66,0,0,1,15.51,11.53c-8.32,11.2-20.38,19.79-35.85,25.56A9.72,9.72,0,0,1,1995.43,1552.35Z" transform="translate(-177.63 -174.32)"/><path class="cls-1" d="M1982.78,1519.81a9.67,9.67,0,0,1-3.47-18.69c10-3.83,28.55-11,39.28-29a9.67,9.67,0,0,1,16.6,9.91c-14.16,23.72-37.66,32.75-49,37.09A9.59,9.59,0,0,1,1982.78,1519.81Z" transform="translate(-177.63 -174.32)"/><path class="cls-1" d="M1989.7,1485.2a9.66,9.66,0,0,1-4-18.45c9.85-4.51,24-12.32,32.82-27.9a9.67,9.67,0,1,1,16.81,9.55c-8.73,15.35-22.33,27.1-41.58,35.92A9.72,9.72,0,0,1,1989.7,1485.2Z" transform="translate(-177.63 -174.32)"/><path class="cls-1" d="M1994.71,1451a9.66,9.66,0,0,1-4.63-18.15c12.94-7,22.2-16,28.31-27.31a9.66,9.66,0,1,1,17,9.16c-7.83,14.54-20,26.36-36.08,35.13A9.72,9.72,0,0,1,1994.71,1451Z" transform="translate(-177.63 -174.32)"/><path class="cls-1" d="M2003.18,1414.21a9.66,9.66,0,0,1-5.07-17.89c8.19-5,12.8-9.5,20.16-24a9.66,9.66,0,1,1,17.24,8.73c-8.33,16.46-15,24.18-27.28,31.75A9.53,9.53,0,0,1,2003.18,1414.21Z" transform="translate(-177.63 -174.32)"/><path class="cls-1" d="M2008.3,1379.21a9.66,9.66,0,0,1-5.86-17.35c6.73-5.14,9.4-9.48,15.72-22.83a9.66,9.66,0,0,1,17.47,8.26c-7,14.76-11.12,22-21.48,29.94A9.65,9.65,0,0,1,2008.3,1379.21Z" transform="translate(-177.63 -174.32)"/><path class="cls-1" d="M2059,1552.34a9.5,9.5,0,0,1-3.37-.61c-15.46-5.76-27.52-14.35-35.84-25.55a9.66,9.66,0,0,1,15.51-11.53c6.06,8.16,15.17,14.54,27.07,19a9.66,9.66,0,0,1-3.37,18.72Z" transform="translate(-177.63 -174.32)"/><path class="cls-1" d="M2069.65,1519a9.62,9.62,0,0,1-3.51-.66c-9-3.52-32.93-12.86-46.92-36.32a9.66,9.66,0,1,1,16.59-9.89c9.4,15.74,24.9,23.34,37.36,28.2a9.67,9.67,0,0,1-3.52,18.67Z" transform="translate(-177.63 -174.32)"/><path class="cls-1" d="M2066.7,1486.09a9.63,9.63,0,0,1-3.9-.83c-13-5.74-31.73-15.81-43.68-36.86a9.66,9.66,0,0,1,16.79-9.55c9.14,16.06,24.18,24.09,34.69,28.73a9.67,9.67,0,0,1-3.9,18.51Z" transform="translate(-177.63 -174.32)"/><path class="cls-1" d="M2059.52,1450.92a9.51,9.51,0,0,1-4.62-1.18c-16-8.75-28.1-20.54-35.89-35a9.66,9.66,0,1,1,17-9.16c6.08,11.29,15.29,20.19,28.14,27.22a9.66,9.66,0,0,1-4.64,18.14Z" transform="translate(-177.63 -174.32)"/><path class="cls-1" d="M2051.89,1414.54a9.63,9.63,0,0,1-5.2-1.52c-12.35-7.92-20.14-16.89-27.8-32a9.67,9.67,0,0,1,17.25-8.74c6.91,13.64,12.92,19.3,21,24.47a9.66,9.66,0,0,1-5.22,17.79Z" transform="translate(-177.63 -174.32)"/><path class="cls-1" d="M2047.1,1379.21a9.59,9.59,0,0,1-5.85-2c-9.84-7.49-15.3-14.77-22.47-29.94a9.66,9.66,0,0,1,17.47-8.26c5.86,12.39,9.45,17.3,16.71,22.83a9.66,9.66,0,0,1-5.86,17.35Z" transform="translate(-177.63 -174.32)"/><path class="cls-1" d="M1922.82,1662a9.67,9.67,0,0,1-9.66-9.67v-236a9.67,9.67,0,0,1,19.33,0v236A9.67,9.67,0,0,1,1922.82,1662Z" transform="translate(-177.63 -174.32)"/><path class="cls-1" d="M1894.55,1594.18a9.67,9.67,0,0,1-3.17-18.8c10.56-3.66,18.6-8.9,23.91-15.56a9.66,9.66,0,0,1,15.12,12c-7.62,9.58-18.62,16.91-32.7,21.79A9.46,9.46,0,0,1,1894.55,1594.18Z" transform="translate(-177.63 -174.32)"/><path class="cls-1" d="M1883.17,1566.88a9.66,9.66,0,0,1-3.26-18.76c8.87-3.18,25.38-9.1,34.8-23.82a9.66,9.66,0,0,1,16.28,10.42c-13,20.26-34.31,27.92-44.56,31.59A9.57,9.57,0,0,1,1883.17,1566.88Z" transform="translate(-177.63 -174.32)"/><path class="cls-1" d="M1889.39,1537.84a9.66,9.66,0,0,1-3.79-18.55c8.73-3.73,21.24-10.16,29-22.91a9.66,9.66,0,0,1,16.5,10c-8,13.13-20.39,23.15-37.92,30.63A9.56,9.56,0,0,1,1889.39,1537.84Z" transform="translate(-177.63 -174.32)"/><path class="cls-1" d="M1893.9,1509.17a9.66,9.66,0,0,1-4.38-18.28c11.45-5.81,19.62-13.14,25-22.4a9.66,9.66,0,0,1,16.74,9.65c-7.17,12.45-18.26,22.53-33,30A9.53,9.53,0,0,1,1893.9,1509.17Z" transform="translate(-177.63 -174.32)"/><path class="cls-1" d="M1901.52,1478.28a9.66,9.66,0,0,1-4.81-18c7.16-4.11,11.19-7.74,17.65-19.63a9.66,9.66,0,0,1,17,9.22c-7.55,13.93-13.87,20.79-25,27.18A9.66,9.66,0,0,1,1901.52,1478.28Z" transform="translate(-177.63 -174.32)"/><path class="cls-1" d="M1906.13,1448.92a9.67,9.67,0,0,1-5.61-17.54c5.88-4.18,8.08-7.53,13.72-18.62a9.66,9.66,0,0,1,17.23,8.73c-6.25,12.34-10.24,18.89-19.75,25.64A9.62,9.62,0,0,1,1906.13,1448.92Z" transform="translate(-177.63 -174.32)"/><path class="cls-1" d="M1951.7,1594.18a9.82,9.82,0,0,1-3.17-.54c-14.07-4.89-25.06-12.22-32.68-21.79a9.66,9.66,0,1,1,15.13-12c5.3,6.66,13.34,11.89,23.9,15.56a9.67,9.67,0,0,1-3.18,18.8Z" transform="translate(-177.63 -174.32)"/><path class="cls-1" d="M1961.31,1566.24a9.54,9.54,0,0,1-3.3-.59c-8.18-3-29.9-10.88-42.74-30.93a9.66,9.66,0,1,1,16.28-10.42c8.25,12.89,22,19.16,33.06,23.18a9.67,9.67,0,0,1-3.3,18.76Z" transform="translate(-177.63 -174.32)"/><path class="cls-1" d="M1958.65,1538.6a9.6,9.6,0,0,1-3.68-.74c-11.84-4.87-28.86-13.44-39.81-31.43a9.66,9.66,0,0,1,16.51-10c8,13.14,21.33,19.77,30.67,23.61a9.67,9.67,0,0,1-3.69,18.61Z" transform="translate(-177.63 -174.32)"/><path class="cls-1" d="M1952.2,1509.09a9.55,9.55,0,0,1-4.38-1.06c-14.6-7.43-25.62-17.49-32.78-29.89a9.66,9.66,0,0,1,16.74-9.65c5.33,9.23,13.44,16.53,24.81,22.32a9.67,9.67,0,0,1-4.39,18.28Z" transform="translate(-177.63 -174.32)"/><path class="cls-1" d="M1945.33,1478.57a9.58,9.58,0,0,1-4.94-1.37c-11.3-6.76-18.44-14.43-25.47-27.37a9.67,9.67,0,0,1,17-9.22c6,11.15,11.33,15.78,18.39,20a9.66,9.66,0,0,1-5,18Z" transform="translate(-177.63 -174.32)"/><path class="cls-1" d="M1941,1448.92a9.57,9.57,0,0,1-5.58-1.79c-9-6.42-14.07-12.66-20.65-25.64a9.66,9.66,0,1,1,17.24-8.73c5.19,10.24,8.19,14.07,14.6,18.62a9.66,9.66,0,0,1-5.61,17.54Z" transform="translate(-177.63 -174.32)"/><path class="cls-1" d="M1902.88,1686.27a10.86,10.86,0,0,1-8.06-18.15c55-61,151-104.45,285.46-129.28,99.27-18.33,183.91-19.09,184.76-19.1h.07a10.87,10.87,0,0,1,.07,21.74c-3.29,0-330.24,3.83-454.22,141.21A10.87,10.87,0,0,1,1902.88,1686.27Z" transform="translate(-177.63 -174.32)"/><path class="cls-1" d="M2049.39,1691.35a8.45,8.45,0,0,1-7.2-4,42,42,0,0,0-15.42-13.45,8.45,8.45,0,0,1,7.55-15.13,58.69,58.69,0,0,1,22.28,19.73,8.46,8.46,0,0,1-7.21,12.86Z" transform="translate(-177.63 -174.32)"/><path class="cls-1" d="M2069.72,1693.56a8.45,8.45,0,0,1-8.19-6.4c-.24-.93-5.65-23-.1-40.93a8.45,8.45,0,1,1,16.15,5c-4.13,13.41.3,31.67.35,31.85a8.46,8.46,0,0,1-6.16,10.24A8.12,8.12,0,0,1,2069.72,1693.56Z" transform="translate(-177.63 -174.32)"/><path class="cls-1" d="M2069.72,1693.53a8.44,8.44,0,0,1-7.29-12.7c.38-.65,9.46-15.84,27-20.55a8.45,8.45,0,1,1,4.39,16.32c-10.7,2.89-16.75,12.73-16.81,12.83A8.48,8.48,0,0,1,2069.72,1693.53Z" transform="translate(-177.63 -174.32)"/><circle class="cls-1" cx="935.92" cy="479.37" r="15.06" transform="translate(-197.59 743.28) rotate(-51.75)"/><circle class="cls-1" cx="370.04" cy="846.92" r="15.06" transform="translate(-603.81 203.29) rotate(-35.88)"/><circle class="cls-1" cx="379.29" cy="1035.56" r="15.06" transform="translate(-893.55 990.79) rotate(-76.63)"/><circle class="cls-1" cx="344.51" cy="1380.92" r="15.06" transform="translate(-1256.32 1195.55) rotate(-75.55)"/><circle class="cls-1" cx="288.54" cy="1200.08" r="15.06" transform="translate(-941.71 381.2) rotate(-45)"/><circle class="cls-1" cx="772.07" cy="935.45" r="15.06" transform="translate(-492.57 1299.28) rotate(-76.8)"/><circle class="cls-1" cx="1141.33" cy="579.15" r="15.06" transform="translate(137.82 1382.57) rotate(-76.72)"/><circle class="cls-1" cx="1290.95" cy="359.97" r="15.06" transform="translate(-54.06 843.96) rotate(-45)"/><circle class="cls-1" cx="1495.06" cy="287.67" r="15.06" transform="translate(56.84 967.11) rotate(-45)"/><circle class="cls-1" cx="1759.28" cy="479.37" r="15.06" transform="translate(-1.32 1210.09) rotate(-45)"/><circle class="cls-1" cx="1939.41" cy="485.8" r="15.06" transform="translate(46.89 1339.34) rotate(-45)"/><circle class="cls-1" cx="1703.06" cy="344.91" r="15.06" transform="translate(798.45 1748.85) rotate(-76.72)"/><circle class="cls-1" cx="2098.49" cy="664.03" r="15.06" transform="translate(792.46 2379.5) rotate(-76.72)"/><circle class="cls-1" cx="1117.2" cy="272.61" r="15.06" transform="translate(417.57 1122.98) rotate(-76.72)"/><circle class="cls-1" cx="510.43" cy="699.93" r="15.06" transform="translate(-523.06 391.62) rotate(-45)"/><path class="cls-2" d="M1944.88,2173.4" transform="translate(-177.63 -174.32)"/><path class="cls-1" d="M1290.32,2399.68c-297.21,0-576.63-115.73-786.79-325.9S177.63,1584.21,177.63,1287s115.74-576.62,325.9-786.79,489.58-325.89,786.79-325.89,576.62,115.74,786.78,325.89S2403,989.79,2403,1287a1114.1,1114.1,0,0,1-373.12,831.35,10.87,10.87,0,1,1-14.45-16.24A1092.35,1092.35,0,0,0,2381.26,1287c0-291.4-113.48-565.36-319.53-771.41s-480-319.53-771.41-319.53S725,309.54,518.91,515.59,199.38,995.6,199.38,1287s113.47,565.36,319.53,771.41,480,319.53,771.41,319.53c232.94,0,455.17-72.37,642.68-209.31a10.87,10.87,0,0,1,12.83,17.56C1754.57,2325.86,1527.89,2399.68,1290.32,2399.68Z" transform="translate(-177.63 -174.32)"/><polygon class="cls-1" points="1988.84 1780.87 1835.95 1780.87 1835.95 1802.59 1973.81 1802.59 1988.84 1780.87"/><path class="cls-1" d="M247.8,1655.35a10.87,10.87,0,0,1-7.42-18.82c67.94-63.33,166.76-176.67,167.75-177.8a10.87,10.87,0,0,1,16.4,14.27c-1,1.15-100.56,115.34-169.32,179.43A10.86,10.86,0,0,1,247.8,1655.35Z" transform="translate(-177.63 -174.32)"/><path class="cls-1" d="M2244.17,1442.64c1.14,3.83,3.55,7.69,5.92,12.8,7.17,12.85,15.5,29.51,12.63,40.78-3.07,17.58-1.22,46.46-1.22,46.46l-5.25,2.72-21.55,3.13-7.6,1,.23-4.14c0-1.27,4.82-40-8.55-56.86l9.06-7.29c12.14,15.52,12.8,41.84,12.33,57l8.87-1c.35-11.35-.58-28.84,2.4-43.9,1.5-7.53-5.68-20.37-12.86-33.21a59,59,0,0,1-5.92-12.8Z" transform="translate(-177.63 -174.32)"/><path class="cls-1" d="M2242.42,1335.31l-19,1.94,11,8.77a2.35,2.35,0,0,1-1,4.15c-7.29,1.54-21.58,4-33.2,2.78l8.71,10.11a4.24,4.24,0,0,1-2.44,6.94c-11.25,2-21.87,1.79-33.22-2.74l3.31,9.73a4,4,0,0,1-5.93,4.7l-17.27-7.65a1.66,1.66,0,0,1,.66-3.18l11.55,0-4.14-13.82a2.85,2.85,0,0,1,4.39-3.15c7.29,5.21,19.42,11.6,32.81,9.15l-15.24-18.12a2.41,2.41,0,0,1,2.49-3.87c8.78,2.57,23.18,5.82,34.76,3.74l-13.13-11a2.15,2.15,0,0,1,1.23-3.79l32.62-2.25Z" transform="translate(-177.63 -174.32)"/><path class="cls-1" d="M2307,1410.5s-2,25.17,6.48,35.53l-9.15,8.56C2288.52,1424.1,2307,1410.5,2307,1410.5Z" transform="translate(-177.63 -174.32)"/><path class="cls-1" d="M2287.35,1433.87c2.29,7.65,4.46,19.07,9.2,29.31,3.58,6.43,7.21,11.59,10.92,14.22,9.89,6.62,17.3,11.89,22.15,18.35,3.47,3.7,12.11,14.47,18.35,36.5l-13.09,3.31c0-1.61-2.86-30.32-34-48.26-17.7-10.19-23.94-42.39-24.93-51.26Z" transform="translate(-177.63 -174.32)"/><path class="cls-1" d="M2309.89,1439.62l-1.22-1.31-1.23-1.3s-24.79-14.64-44-6.39c-17.89,7-40.78,12.62-40.78,12.62l-6.34,1.07,1.07,6.35s3.16,20.29.22,34.08c-1.62,11.31-15.39,48.75-19.56,61.24l-19.71,4.64c0-1.26,9.58-12,16-47.66,1.31-12.84,1.8-27,.93-37.73-.8-9.89-8.6-25.66-9-28.15-1.07-6.71-4-10.66-22.32-23.57-9.93-7-21.41-17.68-25.11-34.68q-3.49-9.57-6.87-22.94c-5.64-21.62-13.66-48.37-13.19-63.5,1.69-13.84-5.86-28.29-9-34.36-1.85-3.53-4.34-7.72-3-9,5.51-3.43,17.64,7.9,21.87,12.05,2.57,2.52,9.51,8.7,9.51,8.7l-3.05-13.54s-6.6-24.31-3.72-28.49c.63-.91,2.31-1.57,4.65-1.78a7.22,7.22,0,0,1,7.41,5.28c3.52,8.94,5.57,24.15,14.32,26.94,12.7,4.48,13.56,10.52,13.52,11.78,1,7.6,12.15,15.51,19.56,20.79a100.84,100.84,0,0,1-24.58,19.44,57.49,57.49,0,0,0,20.39-4.77c13.66,10,35.16,18,48.49,22l-1.3,1.22,2.37,5.12c2.29,7.65,13.45,16.61,27.08,22.29,12.54,5.23,26.21,9.64,36.41,6.17,7.61-1,20.33-4.42,35.38-1.44,9.46,2.68,30.08,8.49,49,29.74v-15c-16.92-17.7-37.08-24.47-46.14-26.05-17.53-4.33-31.52-1-41.68,1.25-6.38,2.32-31.65-2.88-46.19-16.57l5.12-2.37,8.87-4.81a2.63,2.63,0,0,0-.78-4.9s-34.65-3-64.76-23.51a54.05,54.05,0,0,0,11.34-11.08s-15-3.09-27.2-18.51a16.9,16.9,0,0,0-5.92-12.8,56.62,56.62,0,0,0-14.86-9.29c-2.6-1-3.86-6.89-5.16-13-.55-2.56-3.57-15-10.37-17.92-9.59-4.15-21.4.74-21.4.74-6.42,3.58-5.59,17.49-4.64,27.62-5.16-4.74-13.05-9.14-20.06-4.4-5.91,4-2.87,11.27.61,21.48,2.28,7.64,7,19.14,6.63,30.49-.54,17.65,6.21,44.36,13.08,67.29,2.25,8.91,4.54,16.55,5.6,22.89,5.72,21.4,18.86,33.19,30.25,41.15,11.17,7.82,16,13.28,17.19,17.1s8.77,17.33,9.38,24.07a162.79,162.79,0,0,1-1.19,38c-4.89,31.19-18.55,51.87-19.85,53.09-3.7,6.78,46-1.8,46-1.8s19.28-52.42,22.23-66.21c2.87-11.27.81-26.49-.22-34.08,8.9-2.25,25.45-6.8,37-11.49,12.77-4.66,27.71,2.11,32.67,4.79,11.36,22,45.09,42.33,63.45,49.26,2.19-3.47,2-8,4.17-11.41C2351,1477.91,2319.3,1460,2309.89,1439.62Z" transform="translate(-177.63 -174.32)"/><path class="cls-1" d="M2272.05,793.06c-114.81,104.45-295.28,313.37-365.93,396.28-18.51,21.72-186.49,222.16-186.78,222.44l16.7,13.36c.15-.29,168.44-201.23,187.49-223.69,70.25-82.85,246.09-286.47,357.78-389.12Z" transform="translate(-177.63 -174.32)"/></svg>